<?xml version="1.0" encoding="UTF-8" standalone="no"?>
<svg width="256px" height="256px" viewBox="0 0 256 256" version="1.1" xmlns="http://www.w3.org/2000/svg" xmlns:xlink="http://www.w3.org/1999/xlink">
    <!-- Generator: Sketch 3.8.3 (29802) - http://www.bohemiancoding.com/sketch -->
    <title>medium</title>
    <desc>Created with Sketch.</desc>
    <defs></defs>
    <g id="Page-1" stroke="none" stroke-width="1" fill="none" fill-rule="evenodd">
        <g id="medium">
            <rect id="Rectangle-1" fill="#231F20" x="0" y="0" width="256" height="256" rx="13"></rect>
            <g id="medium-m" transform="translate(46.000000, 58.000000)">
                <g id="Page-1">
                    <g>
                        <g id="medium-m">
                            <path d="M114.436097,0.747188665 C111.926675,-0.509230425 109.873797,0.761376585 109.873797,3.57058464 L109.873797,115.322521 L155.66839,138.251775 C160.7077,140.774072 164.792989,139.008464 164.792989,134.307533 L164.792989,26.6937405 C164.792989,26.2444564 164.537954,25.8314303 164.136509,25.6296465 L114.436097,0.747188665" id="Fill-1" fill="#7F7F7F"></path>
                            <path d="M54.9561792,87.8263326 L107.200649,2.81231916 C108.671038,0.419290082 111.926675,-0.509230425 114.436097,0.747188665 L164.193184,25.6580224 C164.515914,25.8203952 164.630837,26.2239627 164.441922,26.5313676 L109.873797,115.322521 L54.9561792,87.8263326" id="Fill-2" fill="#ABACAD"></path>
                            <path d="M7.64081958,2.27002535 C3.45792453,0.17494258 2.04106132,1.72457867 4.49223467,5.71296048 L54.9561792,87.8263326 L109.873797,115.322521 L55.0742512,26.1514467 C54.9971108,26.0253318 54.8853361,25.92444 54.7530955,25.8582297 L7.64081958,2.27002535" id="Fill-3" fill="#D8D8D8"></path>
                            <path d="M54.9561792,134.307533 C54.9561792,138.989547 51.5336675,141.106699 47.3523467,139.013193 L4.59928656,117.606776 C2.08986439,116.350356 0.0369870283,113.024078 0.0369870283,110.21487 L0.0369870283,5.27313497 C0.0369870283,1.52752424 2.7746816,-0.167143922 6.12005307,1.50860701 L54.6602123,25.8109366 C54.8412559,25.9023699 54.9561792,26.0868128 54.9561792,26.2885966 L54.9561792,134.307533" id="Fill-4" fill="#FFFFFF"></path>
                        </g>
                    </g>
                </g>
            </g>
        </g>
    </g>
</svg>